<svg width="32" height="32" viewBox="0 0 32 32" fill="none" xmlns="http://www.w3.org/2000/svg">
<path fill-rule="evenodd" clip-rule="evenodd" d="M3.85379 13.479C3.56613 13.0076 2.95075 12.8586 2.47929 13.1463C2.00784 13.4339 1.85884 14.0493 2.1465 14.5208C2.26376 14.7129 2.69465 15.2471 3.33234 15.9054C3.99631 16.5909 4.93997 17.4687 6.12612 18.3435C6.36456 18.5194 6.61342 18.6955 6.87236 18.8703L4.70714 21.0355C4.31662 21.4261 4.31662 22.0592 4.70714 22.4497C5.09767 22.8403 5.73083 22.8403 6.12136 22.4497L8.63401 19.9371C10.4395 20.9088 12.5856 21.6997 15.0001 21.9358V25.5C15.0001 26.0522 15.4478 26.5 16.0001 26.5C16.5524 26.5 17.0001 26.0522 17.0001 25.5V21.9464C18.6183 21.7912 21.2423 21.2579 23.9143 19.8284L26.5357 22.4497C26.9262 22.8402 27.5593 22.8402 27.9499 22.4497C28.3404 22.0592 28.3404 21.426 27.9499 21.0355L25.6682 18.7538C27.163 17.7106 28.6063 16.3454 29.8253 14.5648C30.1373 14.1091 30.0208 13.4868 29.5651 13.1748C29.1094 12.8628 28.487 12.9793 28.175 13.435C24.3341 19.045 17.8792 19.9943 16.0166 19.9999C12.4786 19.876 9.48234 18.3336 7.3132 16.7339C6.23119 15.9359 5.37012 15.1346 4.76888 14.5139C4.21213 13.9391 3.91729 13.5603 3.86291 13.4905C3.856 13.4816 3.85298 13.4777 3.85379 13.479Z" fill="#B3B3BC"/>
</svg>
