<svg width="32" height="32" viewBox="0 0 32 32" fill="none" xmlns="http://www.w3.org/2000/svg">
<path d="M7.41477 19.4673C5.61259 17.9813 4.42918 16.4874 4.06297 15.9997C4.42961 15.5115 5.61295 14.0179 7.41477 12.5321C9.54775 10.7732 12.4532 9.10228 15.8309 9.00381C19.924 8.89531 23.9958 11.1155 27.9271 15.9996C24.0924 20.7635 20.1261 23 16.1441 23C16.0411 23 15.9371 22.9984 15.8311 22.9955C12.4534 22.8971 9.54779 21.2262 7.41477 19.4673ZM28.8482 16.4489C28.9529 16.3173 29.0003 16.1579 29 15.9998L15.803 23.9951C15.9172 23.9982 16.0307 24 16.1441 24C20.5953 24 24.8676 21.4612 28.8482 16.4489Z" stroke="#B3B3BC" stroke-width="2"/>
<circle cx="16" cy="16" r="3.5" stroke="#B3B3BC" stroke-width="2"/>
</svg>
